<svg xmlns:xlink="http://www.w3.org/1999/xlink" preserveAspectRatio="xMidYMid meet" data-bbox="0 0 539.89 42.65" viewBox="0 0 539.89 42.65" xmlns="http://www.w3.org/2000/svg" data-type="color" role="img" aria-label="Payment Methods" width="539.89"  height="42.65" ><defs><style>#comp-kbgakxmn_r_comp-kuwdn299 svg [data-color="1"] {fill: #2F3030;}</style></defs>
    <g>
        <g>
            <path d="M2.27 0H66a2.27 2.27 0 0 1 2.27 2.27v38.1A2.28 2.28 0 0 1 66 42.65H2.28A2.28 2.28 0 0 1 0 40.37V2.27A2.27 2.27 0 0 1 2.27 0z" fill="#2F3030" data-color="1"></path>
            <path fill="#2F3030" d="M382.68 2.27v38.11a2.27 2.27 0 0 1-2.27 2.27h-63.7a2.27 2.27 0 0 1-2.27-2.27V2.27A2.27 2.27 0 0 1 316.71 0h63.7a2.27 2.27 0 0 1 2.27 2.27z" data-color="1"></path>
            <path d="M80.88 0h63.69a2.27 2.27 0 0 1 2.27 2.27v38.1a2.28 2.28 0 0 1-2.28 2.28H80.88a2.28 2.28 0 0 1-2.28-2.28V2.27A2.27 2.27 0 0 1 80.88 0z" fill="#2F3030" data-color="1"></path>
            <path fill-rule="evenodd" fill="#FAFBEF" d="m120.92 33.57.63-.02.62-.04.61-.08.61-.11.59-.14.58-.16.57-.2.56-.22.54-.24.53-.27.52-.3.5-.32.47-.34.47-.36.44-.39.43-.4.41-.43.38-.45.37-.46.34-.48.32-.5.29-.51.27-.53.25-.54.22-.56.19-.57.17-.58.13-.59.11-.61.08-.61.04-.63.02-.63-.02-.62-.04-.63-.08-.61-.11-.6-.13-.59-.17-.57-.19-.57-.22-.56-.25-.54-.27-.53-.29-.5-.32-.5-.34-.48-.37-.46-.38-.45-.41-.42-.43-.41-.44-.38-.47-.36-.47-.35-.5-.32-.52-.29-.53-.27-.54-.25-.56-.21-.57-.2-.58-.16-.59-.14-.61-.11-.61-.08-.62-.04-.63-.02-.63.02-.62.04-.61.08-.61.11-.59.14-.58.16-.57.2-.55.21-.55.25-.52.27-.51.29-.5.32-.48.35-.46.36-.44.38-.43.41-.4.42-.39.45-.36.46-.34.48-.31.5-.3.5-.27.53-.24.54-.22.56-.19.57-.17.57-.14.59-.1.6-.08.61-.05.63-.01.62.01.63.05.63.08.61.1.61.14.59.17.58.19.57.22.56.24.54.27.53.3.51.31.5.34.48.36.46.39.45.4.43.43.4.44.39.46.36.48.34.5.32.51.3.52.27.55.24.55.22.57.2.58.16.59.14.61.11.61.08.62.04.63.02z" data-color="2"></path>
            <path fill-rule="evenodd" fill="#FAFBEF" d="m104.54 33.57.63-.02.62-.04.61-.08.6-.11.59-.14.59-.16.56-.2.56-.22.54-.24.52-.27.52-.3.49-.32.48-.34.46-.36.45-.39.42-.4.41-.43.38-.45.36-.46.34-.48.32-.5.29-.51.28-.53.24-.54.22-.56.19-.57.16-.58.14-.59.11-.61.08-.61.04-.63.02-.63-.02-.62-.04-.63-.08-.61-.11-.6-.14-.59-.16-.57-.19-.57-.22-.56-.24-.54-.28-.53-.29-.5-.32-.5-.34-.48-.36-.46-.38-.45-.41-.42-.42-.41-.45-.38-.46-.36-.48-.35-.49-.32-.52-.29-.52-.27-.54-.25-.56-.21-.56-.2-.59-.16-.59-.14-.6-.11-.61-.08-.62-.04-.63-.02-.63.02-.63.04-.61.08-.61.11-.59.14-.58.16-.57.2-.55.21-.55.25-.53.27-.51.29-.5.32-.48.35-.46.36-.45.38-.42.41-.41.42-.39.45-.36.46-.34.48-.32.5-.3.5-.27.53-.24.54-.22.56-.2.57-.16.57-.14.59-.11.6-.08.61-.04.63-.02.62.02.63.04.63.08.61.11.61.14.59.16.58.2.57.22.56.24.54.27.53.3.51.32.5.34.48.36.46.39.45.41.43.42.4.45.39.46.36.48.34.5.32.51.3.53.27.55.24.55.22.57.2.58.16.59.14.61.11.61.08.63.04.63.02z" data-color="2"></path>
            <path fill-rule="evenodd" fill="#2F3030" d="M111.3 13.78h6.5v-.67h-5.94l-.56.67z" data-color="1"></path>
            <path fill-rule="evenodd" fill="#2F3030" d="m128.61 23.4.11-.01.11-.02.1-.03.1-.05.08-.05.09-.06.08-.07.06-.07.07-.09.06-.09.05-.09.04-.1.04-.1.04-.11.03-.11.02-.11.02-.12.01-.12v-.23l-.01-.1-.02-.11-.03-.1-.03-.09-.04-.08-.06-.08-.05-.07-.06-.06-.07-.05-.07-.03-.08-.02-.09-.01-.11.01-.1.02-.1.03-.09.04-.09.06-.08.06-.07.07-.07.08-.06.09-.06.09-.06.1-.04.11-.04.11-.03.11-.04.12-.02.12-.02.19.01.19.02.21.06.19.08.17.11.14.13.09.17.03z" data-color="1"></path>
            <path fill-rule="evenodd" fill="#2F3030" d="M102.25 22.41v-.03l-.02-.02-.02-.01-.04-.01h-.05l-.05-.01h-.13l-.06.01h-.07l-.07.01-.06.01-.07.01-.05.01-.05.01-.05.02h-.03l-.03.02-.04.01-.05.02-.06.03-.05.03-.06.03-.05.03-.06.04-.05.04-.05.05-.05.05-.04.05-.03.06-.02.07-.01.06-.01.14.02.12.04.08.06.06.06.04.07.03.07.01h.19l.11-.01.11-.02.09-.02.08-.03.08-.04.07-.04.06-.04.06-.05.05-.05.04-.04.03-.05.03-.05.02-.05.03-.04.01-.05.03-.12.03-.14.02-.13.02-.1z" data-color="1"></path>
            <path fill-rule="evenodd" fill="#2F3030" d="m122.75 22.41-.01-.03-.02-.02-.03-.01-.04-.01-.04-.01h-.18l-.07.01-.06.01-.07.01h-.06l-.06.02h-.06l-.05.02-.04.01h-.03l-.04.01-.04.01-.04.02-.06.03-.04.02-.06.03-.06.04-.05.03-.05.05-.05.04-.04.06-.04.05-.03.07-.02.06-.02.07v.14l.02.12.03.08.05.06.06.04.07.03.07.01h.2l.11-.01.11-.02.1-.03.09-.04.08-.03.07-.05.07-.04.05-.05.05-.05.05-.05.04-.06.02-.05.03-.05.01-.04.01-.05.02-.12.02-.12.02-.11.01-.1z" data-color="1"></path>
            <path fill="#2F3030" d="M461.28 2.27v38.11a2.27 2.27 0 0 1-2.27 2.27h-63.7a2.27 2.27 0 0 1-2.27-2.27V2.27A2.27 2.27 0 0 1 395.31 0h63.7a2.27 2.27 0 0 1 2.27 2.27z" data-color="1"></path>
            <path fill="#2F3030" d="M225.46 2.27v38.11a2.27 2.27 0 0 1-2.27 2.27h-63.7a2.27 2.27 0 0 1-2.27-2.27V2.27A2.27 2.27 0 0 1 159.49 0h63.7a2.27 2.27 0 0 1 2.27 2.27z" data-color="1"></path>
            <path d="M178.39 20.33v-.68l-.33.68h-2.82l-.36-.73v.73h-5.28l-.6-1.48h-1.06l-.66 1.48h-2.74v-4.46l2-4.54h3.84l.54 1.29v-1.28h4.7l1 2.17 1-2.18h14.88a2.51 2.51 0 0 1 1.28.35v-.35h3.74v.49a3 3 0 0 1 1.67-.49h6.59l.58 1.31v-1.31h4.23l.76 1.31v-1.31h4.05v9h-4.16l-1-1.57v1.56h-5.16l-.73-1.61h-1l-.68 1.61h-3.12a4 4 0 0 1-2-.64v.64h-6.22v-2.1c0-.31-.23-.28-.23-.28h-.23v2.38z" fill="#FAFBEF" data-color="2"></path>
            <path d="M175.29 22.28h8.17l1.18 1.34 1.2-1.34h6.28a2.94 2.94 0 0 1 1.15.32v-.32h5.6a2.79 2.79 0 0 1 1.3.36v-.36h7.19v.33a2.42 2.42 0 0 1 1.2-.33h4.69v.33a2.79 2.79 0 0 1 1.21-.33h3.68v8.49a2 2 0 0 1-1.49.55h-4.85v-.27a2.47 2.47 0 0 1-1.16.27h-12.88v-2.2c0-.21-.09-.25-.29-.25h-.17v2.45h-4v-2.44a2.67 2.67 0 0 1-1.19.24h-1.45v2.2h-5l-1.13-1.38-1.2 1.38h-8.05z" fill="#FAFBEF" data-color="2"></path>
            <path fill="#2F3030" d="M304.07 2.27v38.11a2.27 2.27 0 0 1-2.27 2.27h-63.7a2.27 2.27 0 0 1-2.27-2.27V2.27A2.27 2.27 0 0 1 238.1 0h63.7a2.27 2.27 0 0 1 2.27 2.27z" data-color="1"></path>
            <path d="M254.58 42.65h47.21a2.27 2.27 0 0 0 2.27-2.28v-16c-4.53 2.91-21.61 12.81-49.48 18.28z" fill="#FAFBEF" data-color="2"></path>
            <path d="M303.06 26.19v14.18a1.27 1.27 0 0 1-1.27 1.28h-38.08c20.45-5.07 33.88-12.19 39.35-15.46m1-1.79c-4.53 2.88-21.61 12.78-49.48 18.25h47.21a2.27 2.27 0 0 0 2.27-2.28v-16z" fill="#2F3030" data-color="1"></path>
            <path fill="#2F3030" d="M539.89 2.27v38.11a2.27 2.27 0 0 1-2.27 2.27h-63.7a2.27 2.27 0 0 1-2.27-2.27V2.27A2.27 2.27 0 0 1 473.92 0h63.7a2.27 2.27 0 0 1 2.27 2.27z" data-color="1"></path>
            <path fill="#FAFBEF" d="M31.4 27.73h-3.33l2.08-12.8h3.34l-2.09 12.8z" data-color="2"></path>
            <path d="m25.26 14.93-3.17 8.8-.38-1.89-1.12-5.76A1.43 1.43 0 0 0 19 14.93h-5.25l-.06.21a12.59 12.59 0 0 1 3.49 1.47l2.9 11.12h3.47l5.3-12.8z" fill="#FAFBEF" data-color="2"></path>
            <path d="M51.48 27.73h3.06l-2.66-12.8H49.2a1.53 1.53 0 0 0-1.54 1l-5 11.85h3.47l.7-1.9h4.23zm-3.66-4.53 1.75-4.79 1 4.79z" fill="#FAFBEF" data-color="2"></path>
            <path d="m43 18 .47-2.75a9.62 9.62 0 0 0-3-.56c-1.65 0-5.58.72-5.58 4.24 0 3.31 4.61 3.35 4.61 5.08s-4.13 1.43-5.5.33l-.49 2.88a9.32 9.32 0 0 0 3.76.72c2.27 0 5.71-1.18 5.71-4.38s-4.66-3.64-4.66-5.09 3.2-1.25 4.68-.47z" fill="#FAFBEF" data-color="2"></path>
            <path d="m21.71 21.84-1.12-5.76A1.43 1.43 0 0 0 19 14.93h-5.25l-.06.21a13 13 0 0 1 5 2.49 9.91 9.91 0 0 1 3.02 4.21z" fill="#FAFBEF" data-color="2"></path>
            <path d="M360.43 22.77c.09 2.49.17 5.06 0 7.58a3.41 3.41 0 0 1-1.61 2.53 4.86 4.86 0 0 1-2.49.54h-3.29V12.33a3.56 3.56 0 0 1 2.53-3 44.45 44.45 0 0 1 4.8-.17l.08 1.08v12z" fill="#FAFBEF" data-color="2"></path>
            <path d="M336.57 22V12a3.63 3.63 0 0 1 2.2-2.57c1.61-.49 3.48-.2 5.13-.25.09 1.62 0 3.65.05 5.06l.08 13c-.21 2 .54 4.68-1.95 5.8-1.57.78-3.69.29-5.47.45V22z" fill="#FAFBEF" data-color="2"></path>
            <path d="M336.57 22.4a3.6 3.6 0 0 0 2.69 1.6c1.37.13 3.15.25 4.06-1 .63-.67.25-1.58.38-2.45v-1.57a14.68 14.68 0 0 0-2.41 0c-.45 1.7.75 3.6-1.2 4.47a2.11 2.11 0 0 1-1.57-.25c-.75-.16-.33-1.36-1.33-1l-.58-.08z" fill="#2F3030" data-color="1"></path>
            <path d="M352.19 10.59v20.18a3.67 3.67 0 0 1-2.07 2.36c-1.58.54-3.52.29-5.26.29l-.09-21.25a3.28 3.28 0 0 1 1.62-2.41 4.22 4.22 0 0 1 2.15-.58h3.53z" fill="#FAFBEF" data-color="2"></path>
            <path d="M351.86 18.92a4.35 4.35 0 0 1 0 .74c-1.24-.33-2.78-.7-3.9.21a2.28 2.28 0 0 0-.62 1.66 2.27 2.27 0 0 0 1.29 1.74 6 6 0 0 0 3.19-.21 1.23 1.23 0 0 1 0 .66h-4.77a2.45 2.45 0 0 1-1.86-1.45 2.54 2.54 0 0 1 .41-2.52 2.44 2.44 0 0 1 2-.87z" fill="#2F3030" data-color="1"></path>
            <path d="M360.43 22.77a1.4 1.4 0 0 1-1 1h-5.8l-.21-.09v-4.84h3.69c1.16.12 2.44-.38 3 .7a1.07 1.07 0 0 1-.16 1.16c-.17.29-.54.33-.63.54a1.7 1.7 0 0 1 1.12.95zm-5-3.4a4.18 4.18 0 0 0 0 1.58c.87 0 2 .29 2.57-.37a.82.82 0 0 0 0-.87c-.72-.58-1.71-.21-2.54-.34zm2.24 2.28a11.31 11.31 0 0 0-2.32 0 8 8 0 0 0 .08 1.7 5.62 5.62 0 0 0 2.49-.25.85.85 0 0 0-.25-1.41z" fill="#2F3030" data-color="1"></path>
            <path fill-rule="evenodd" fill="#2F3030" d="M110.32 15.26h7.48v-.67h-7.09l-.39.67z" data-color="1"></path>
            <path fill-rule="evenodd" fill="#2F3030" d="M109.59 16.73h8.21v-.66h-7.92l-.29.66z" data-color="1"></path>
            <path fill-rule="evenodd" fill="#2F3030" d="M109.09 18.21h8.71v-.66h-8.5l-.21.66z" data-color="1"></path>
            <path fill-rule="evenodd" fill="#2F3030" d="M109.38 25.35h8.44v-.66h-8.64l.2.66z" data-color="1"></path>
            <path fill-rule="evenodd" fill="#2F3030" d="M110.01 26.83h7.81v-.66h-8.12l.31.66z" data-color="1"></path>
            <path fill-rule="evenodd" fill="#2F3030" d="M110.88 28.31h6.94v-.67h-7.35l.41.67z" data-color="1"></path>
            <path fill-rule="evenodd" fill="#2F3030" d="M112.09 29.79h5.73v-.68h-6.31l.58.68z" data-color="1"></path>
            <path fill-rule="evenodd" fill="#2F3030" d="M108.8 19.68h9v-.66h-8.87l-.13.66z" data-color="1"></path>
            <path fill-rule="evenodd" fill="#2F3030" d="M114.28 23.88h3.44v-.67h-3.31l-.13.67z" data-color="1"></path>
            <path fill-rule="evenodd" fill="#2F3030" d="M114.56 22.41h3.16v-.67h-3.04l-.12.67z" data-color="1"></path>
            <path fill-rule="evenodd" fill="#2F3030" d="M108.57 21.74h.9v.67h-.86l-.04-.67z" data-color="1"></path>
            <path fill-rule="evenodd" fill="#2F3030" d="M106.91 20.93h-.06l-.06-.01-.05-.01-.05-.01-.05-.01h-.06l-.05-.01-.06-.01-.06-.01h-.06l-.08-.01h-.26l-.1.01-.12.01-.09.01-.07.01-.08.03-.06.02-.06.03-.05.03-.04.05-.04.03-.02.05-.02.04-.01.05v.05l.01.06.02.05.03.05.04.06.08.08.1.06.12.05.12.05.14.04.13.05.14.04.13.06.12.07.12.08.1.11.09.13.07.15.04.19.01.22-.01.26-.03.2-.05.17-.07.15-.08.14-.09.12-.11.1-.12.09-.13.08-.13.06-.13.06-.14.04-.15.03-.14.03-.14.01-.13.01h-.62l-.13-.01h-.13l-.11-.01-.1-.01-.09-.01-.09-.01-.08-.02-.08-.01-.07-.02-.07-.02-.06-.02-.07-.03-.07-.02.19-.91.03.01.05.01.06.01.07.02.07.02.08.01.09.03.1.01.11.02.1.02.11.01.12.01h.12l.12.01h.12l.12-.01.12-.02.09-.03.08-.05.06-.06.04-.05.03-.07.02-.07.02-.06.01-.12-.04-.1-.07-.09-.1-.07-.13-.06-.14-.06-.16-.06-.16-.06-.17-.08-.16-.08-.14-.11-.13-.13-.11-.16-.07-.18-.04-.23.01-.26.02-.16.03-.15.04-.14.05-.14.06-.12.08-.11.08-.1.11-.09.12-.08.13-.07.15-.06.16-.04.19-.04.2-.03.22-.02h.54l.13.01h.12l.1.01.09.01.09.01.07.01h.07l.06.02h.05l.05.01.04.01h.04l.04.01.03.01-.21.93z" data-color="1"></path>
            <path d="M104.9 24.48h-.78l-.35-.05-.4-.13.21-1 .72.15h1.06v-.53l-.06-.07-.1-.07-.11-.05-.15-.07-.32-.12-.16-.07-.16-.09-.16-.11-.13-.14L104 22l-.08-.2v-.98l.05-.14.07-.13.08-.11.09-.11.11-.09.13-.09.13-.07.15-.06H106l.82.05.37.07-.19.86-.76-.08h-.63l-.17.07-.06.07v.24l.07.09.07.07.1.06.1.05.66.23.13.08.12.09.11.11.1.13.07.17v.89l-.06.18-.06.17-.09.14-.1.12-.11.11-.12.1-.13.08-.14.07-.14.05h-.15l-.29.06h-.41zm-.16-.12h.73l.28-.06h.27l.13-.06.12-.08.11-.08.1-.1.09-.12.08-.13.06-.15.05-.16v-.83l-.06-.15-.09-.12-.09-.09-.12-.23-.12-.06-.26-.1-.39-.13-.12-.06-.11-.06-.09-.09v-.37l.06-.12.08-.08h.06l.13-.06h.66l.67.08.19-.82-.36-.13h-1.96l-.14.06-.13.06-.11.08-.1.08-.08.1-.07.1-.06.12-.05.13v.91l.07.17.1.15.12.12.14.1.15.08.32.14.16.06.15.06.12.06.12.09.09.1v.46l-.05.07-.06.06-.08.06h-.73l-.55-.08-.4-.09-.16.8.15.06.29.06h.51z" fill="#2F3030" data-color="1"></path>
            <path fill-rule="evenodd" fill="#2F3030" d="M107.89 18.98h1.14l-.17 1h.69l-.15.93-.72-.02-.4 2.3v.09l.02.07.04.05.05.05.08.03.08.02.09.02h.19l.08-.01.08-.01.06-.02.06-.01.03-.02h.03l.01-.01-.15.77-.03.02-.03.02-.03.01-.02.02-.03.01-.04.01-.03.02-.04.01-.04.01-.04.01-.05.01-.05.01-.05.01h-.07l-.06.01-.07.01h-.32l-.16-.01-.15-.02-.13-.02-.11-.03-.1-.04-.07-.04-.08-.05-.05-.05-.04-.06-.03-.07-.02-.07-.01-.08-.01-.09v-.09l.02-.09.01-.11.79-4.5z" data-color="1"></path>
            <path d="M108 24.46h-.75l-.08-.05-.06-.06v-.7l.8-4.56h1.26l-.17 1h.69l-.17 1h-.72l-.39 2.25v.12l.15.05h.34l.24-.06h.09v.1l-.14.79-.15.09-.18.07-.41.06zm-.06-5.46-.81 4.65v.41h1.13l.39-.07.18-.08.12-.65h-.56l-.19-.07-.06-.09v-.17l.41-2.36h.72l.13-.81h-.69l.17-1z" fill="#2F3030" data-color="1"></path>
            <path d="M111.48 24.46h-.83l-.21-.06-.2-.08-.19-.11-.18-.12-.16-.14-.15-.18-.12-.2-.11-.22-.07-.25-.05-.29v-1.28l.07-.19.07-.18.1-.18.12-.18.13-.17.17-.16.19-.15.21-.13.24-.1.28-.08h1.33l.17.07.17.07.15.11.15.12.13.14.1.18.09.19.06.23v.86l-.06.36v.3h-2.68v.21l.06.14v.07l.1.13.13.12.13.09.16.06h.92l.33-.06.22-.08.12-.05.33-.19-.19 1.17-.29.13-.2.06h-.53zm.09-4.51h-.34L111 20l-.27.08-.23.1-.2.12-.18.13-.15.16-.13.16-.11.17-.09.17-.07.18-.07.17v.17l-.06.31v1.03l.07.24.1.21.12.18.13.17.16.13.16.11.19.1.18.08.2.06.2.05.41.05h1.14l.25-.09.1-.05.14-.86-.13.07-.24.1h-1.61l-.16-.1-.13-.13-.12-.15v-.08l-.06-.16v-.24h-.33l.21-.94h.3v-.27l.08-.15v-.07l.11-.13h.06l.13-.09h.69l.13.08h.06L112 21l.09.13.06.16v.45h-1.51l-.14.7h2.56v-.2l.07-.35v-.83l-.06-.21-.08-.18-.1-.16-.12-.13-.13-.11-.14-.09-.15-.07-.16-.06h-.5zm-1.37 2.48h.21l.14-.7h-.18zm.49-.82h1.38v-.44l-.08-.11-.11-.07h-.52l-.13.05L111 21l-.1.1-.09.12-.07.14v.15z" fill="#2F3030" data-color="1"></path>
            <path fill-rule="evenodd" fill="#2F3030" d="m120.31 20.23-.05-.03-.05-.03-.06-.03-.06-.03-.07-.02-.07-.03-.07-.02-.07-.03-.08-.02-.08-.01-.08-.02-.09-.01-.09-.01-.1-.01h-.31l-.1.01-.11.01-.12.02-.12.04-.11.04-.12.06-.11.07-.11.09-.11.11-.11.13-.09.16-.1.18-.08.2-.08.24-.07.26-.02.15-.02.14-.01.15.01.14.01.14.03.13.04.12.04.13.06.11.08.11.09.09.09.09.12.07.12.06.14.06.16.04.06.01.06.01.07.01.08.01.09.01h.2l.11-.01.1-.02.11-.01.1-.03.11-.04.1-.04.1-.06.08-.06.08-.08-.18 1.11-.03.02-.02.02-.03.03-.04.02-.05.04-.05.03-.07.03-.07.02-.1.03-.11.02-.12.02-.15.01-.16.01-.18.01-.21-.01-.23-.01-.19-.02-.19-.04-.19-.07-.19-.08-.19-.1-.17-.12-.16-.15-.16-.16-.13-.19-.12-.2-.1-.23-.07-.26-.05-.27-.02-.3.01-.32.05-.34.03-.17.03-.16.05-.17.04-.15.04-.14.06-.15.05-.13.06-.13.06-.13.06-.12.07-.12.08-.1.07-.11.08-.09.09-.1.08-.08.1-.09.09-.07.1-.07.11-.07.11-.06.11-.05.11-.05.12-.05.13-.04.13-.04.13-.02.14-.03.14-.02.15-.02h.15l.16-.01.13.01h.13l.12.02.12.01.12.02.11.02.11.02.1.03.09.02.09.03.07.02.07.03.06.02.05.02.04.01.02.01-.21 1.15z" data-color="1"></path>
            <path d="M118.47 24.46h-.66l-.2-.05-.19-.06-.2-.08-.18-.1-.18-.13-.17-.15-.16-.17-.14-.19-.12-.21-.1-.24-.08-.26v-1.26l.07-.34.13-.46.11-.29.18-.38.07-.12.15-.21.17-.2.09-.08.2-.17.2-.14.12-.06.23-.11.25-.09.27-.06h1.38l.5.12.37.13-.23 1.27-.3-.14-.27-.1-.23-.05h-1.01l-.11.05-.11.05-.11.07-.11.09-.1.1-.1.13-.09.15-.09.17-.09.21-.07.23-.07.25v.83l.08.24.06.1.07.1.08.09.09.09.11.06.12.06.14.05.26.06h.74l.2-.06.1-.05.09-.05.08-.06.08-.07h.09l-.19 1.13-.18.14-.14.07-.17.06h-.39zm.61-5.61h-.58l-.27.05h-.12l-.24.09-.23.1-.11.06-.19.13-.19.16-.16.17-.08.1-.15.21-.07.11-.18.37-.1.28-.09.29-.07.32v1.38l.07.25.09.22.12.21.13.17.15.16.16.14.17.13.17.09.19.08.18.06h1.52l.16-.05.12-.06.13-.11.16-.92-.1.06-.11.05-.21.06h-.86l-.21-.05-.15-.06-.13-.06-.12-.08-.1-.09-.1-.1-.07-.12-.07-.11V21.4l.06-.27.08-.23.09-.22.09-.18.1-.16.11-.13.11-.12.12-.09.12-.08.12-.06.12-.05h1.06l.26.06.28.1.16.08.18-1-.26-.1-.27-.07-.46-.08h-.24z" fill="#2F3030" data-color="1"></path>
            <path fill-rule="evenodd" fill="#2F3030" d="M130.48 24.4h-1.14l.08-.46v-.04l-.07.08-.07.08-.07.06-.07.06-.08.05-.07.05-.07.04-.08.03-.08.03-.08.02-.08.02-.08.02-.08.01-.08.01h-.17l-.21-.01-.2-.05-.18-.07-.17-.1-.15-.12-.13-.13-.11-.16-.1-.17-.08-.19-.07-.19-.05-.2-.03-.21-.01-.22v-.21l.02-.21.04-.21.06-.24.08-.24.08-.21.11-.19.1-.19.13-.17.12-.14.14-.14.15-.12.15-.1.16-.09.15-.07.17-.06.16-.04.17-.03h.29l.11.01.11.02.1.03.1.04.08.03.08.05.07.04.07.05.06.06.06.05.05.05.04.06.03.05.04.05.02.05.29-1.62h1.12l-.93 5.4z" data-color="1"></path>
            <path d="M128.19 24.52h-.42l-.19-.08-.18-.09-.15-.13-.14-.14-.12-.16-.1-.18-.09-.2-.07-.19v-1.29l.06-.25.08-.23.09-.22.1-.2.11-.19.13-.17.13-.15.14-.14.15-.13.16-.1.16-.1.16-.07.17-.06h.87l.2.06h.09l.17.09.07.06.12.11.11.14.27-1.52h1.24l-.95 5.52h-1.26l.06-.37-.08.07-.15.12-.16.09-.16.07h-.42zm.67-4.48h-.49l-.16.06-.15.07-.15.09-.15.1-.14.11-.13.14-.13.14-.12.16-.1.18-.1.2-.09.21-.07.22-.06.24v1.24l.06.18.08.18.1.17.11.15.13.13.14.12.16.09.17.06.19.05h.75l.15-.07.14-.08.15-.1.13-.14.06-.08h.11l-.07.4h1l.91-5.28h-1l-.28 1.57h-.11v-.1l-.08-.1-.1-.1-.12-.1-.15-.09h-.08l-.19-.06h-.32z" fill="#2F3030" data-color="1"></path>
            <path fill-rule="evenodd" fill="#2F3030" d="m103.25 23.48-.17.92h-1.04l.03-.17.02-.15.02-.12.02-.06-.06.07-.07.06-.08.06-.08.06-.1.06-.1.05-.11.05-.11.04-.12.04-.12.03-.12.02-.13.02-.12.01h-.12l-.11-.01-.11-.02-.15-.04-.13-.04-.12-.05-.1-.06-.09-.07-.08-.07-.07-.08-.06-.08-.04-.09-.05-.09-.03-.09-.02-.09-.02-.1-.01-.09-.01-.1v-.09l.01-.16.03-.15.04-.14.05-.15.07-.13.07-.12.09-.11.1-.11.1-.09.12-.09.12-.07.12-.07.13-.06.14-.05.14-.03.14-.03h.03l.03-.01h.04l.05-.01h.06l.06-.01.08-.01.07-.01h.07l.07-.01.07-.01h.06l.06-.01h.3l.09.01h.17l.06.01h.05l.01-.03.02-.07.02-.09.01-.08-.02-.09-.03-.08-.05-.08-.07-.06-.08-.05-.08-.04-.1-.02-.11-.01h-.12l-.12-.01h-.13l-.13.01h-.14l-.13.02-.13.01-.13.01-.12.02-.12.02-.11.02-.1.02-.09.03-.07.02-.06.03-.05.03.3-1 .09-.04.09-.03.1-.03.1-.02.1-.02.1-.02.11-.01.11-.01.12-.01h.12l.12-.01h.4l.14.01h.15l.11.01.13.02.12.03.14.04.12.05.13.05.12.07.12.08.1.09.09.1.08.11.07.13.04.13.02.14v.16l-.02.16-.42 2.18z" data-color="1"></path>
            <path d="M100.7 24.53h-.24l-.29-.08-.12-.06-.11-.06-.09-.07-.09-.08-.07-.08-.06-.1-.06-.09v-1.15l.06-.15.06-.13.08-.13.09-.12.1-.11.04-.12.12-.09.12-.08.13-.07.14-.06.14-.05h.14l.64-.08h.9v-.42l-.06-.05h-.15L102 21h-1l-.58.09-.16.05-.21.12.34-1.16.21-.08.2-.06.32-.05h1.29l.26.05h.13l.2.04.12.06.13.07.12.08.11.1.09.1.09.12.07.13v.63l-.42 2.18-.18 1H102l.06-.38-.07.06-.19.12-.22.1-.11.05h-.13l-.24.06h-.13zm.26-2.82h-.27l-.13.05-.13.05-.12.07-.11.07-.11.09-.1.09-.1.1-.08.11-.07.11-.07.13v1.02l.07.17v.09l.06.07.06.08.08.07.09.06.09.06h.11l.27.07h.57l.23-.05.23-.08.2-.09.18-.11.09.06.11-.13.1.06V24l-.06.36h.85l.15-.87.44-2.34v-.41l-.06-.11-.08-.1-.08-.1-.1-.08-.11-.08-.12-.06-.12-.06-.13-.05-.25-.06h-.12L102 20h-.87l-.4.07-.25.08-.24.84h.16l.33-.07.52-.05h.96l.08.05.08.07.06.09v.53h-.83z" fill="#2F3030" data-color="1"></path>
            <path fill-rule="evenodd" fill="#2F3030" d="M94.56 24.4h-1.12l.94-5.42h1.95l.19 3.21 1.35-3.21h2.04l-.96 5.42h-1.13l.71-4.05h-.04l-1.68 4.05h-1.27l-.01-.17-.03-.45-.03-.64-.05-.73-.04-.74-.03-.65-.03-.47-.01-.2h-.06l-.69 4.05z" data-color="1"></path>
            <path d="M99 24.46h-1.25v-.07l.65-3.71-1.57 3.78h-1.35l-.22-3.85-.65 3.85h-1.24l1-5.54h2l.18 3 1.27-3H100zm-1.11-.12h1l.94-5.3H97.9l-1.33 3.18h-.11L96.27 19h-1.84l-.92 5.3h1l.69-4.05h.15v.25l.22 3.8h1.17l1.68-4.05h.15v.07z" fill="#2F3030" data-color="1"></path>
            <path fill-rule="evenodd" fill="#2F3030" d="m123.75 23.48-.17.92h-1.04l.01-.17v-.26l.01-.05-.05.06-.07.07-.07.05-.08.06-.09.05-.1.05-.1.05-.11.04-.11.04-.11.03-.12.02-.11.02-.12.01h-.12l-.11-.01-.11-.02-.15-.04-.13-.04-.12-.05-.11-.06-.09-.07-.07-.07-.07-.08-.06-.08-.05-.09-.04-.09-.03-.09-.02-.09-.02-.1-.01-.09-.01-.1v-.09l.01-.16.03-.15.03-.14.06-.15.06-.13.08-.12.09-.11.09-.11.11-.09.11-.09.12-.07.13-.07.13-.06.13-.05.14-.03.14-.03h.03l.03-.01h.04l.05-.01h.06l.06-.01.07-.01.07-.01h.07l.07-.01.07-.01h.07l.05-.01h.31l.09.01h.17l.07.01h.05l.01-.03.01-.07.01-.09.01-.08-.01-.09-.04-.08-.05-.08-.06-.06-.08-.05-.08-.04-.09-.02-.1-.01h-.12l-.12-.01h-.13l-.13.01h-.14l-.13.02-.13.01-.13.01-.13.02-.12.02-.1.02-.1.02-.09.03-.08.02-.06.03-.04.03.29-1 .09-.04.09-.03.1-.03.1-.02.1-.02.11-.02.1-.01.11-.01.12-.01h.12l.12-.01h.39l.14.01h.14l.11.01.13.02.13.03.13.04.13.05.12.05.13.07.11.08.11.09.09.1.08.11.07.13.04.13.03.14v.16l-.02.16-.43 2.18z" data-color="1"></path>
            <path fill-rule="evenodd" fill="#2F3030" d="m123.58 24.43.02-.03.17-.91-.05-.01-.17.92.03-.03v.06l.02-.01v-.02l-.02.03z" data-color="1"></path>
            <path fill-rule="evenodd" fill="#2F3030" d="m122.52 24.4.02.03h1.04v-.06h-1.04l.02.03h-.04l-.01.03h.03l-.02-.03z" data-color="1"></path>
            <path fill-rule="evenodd" fill="#2F3030" d="m122.58 23.94-.04-.04-.01.07-.01.11v.32h.04l.01-.17.01-.15v-.14l-.04-.04.04.04z" data-color="1"></path>
            <path fill-rule="evenodd" fill="#2F3030" d="m120.97 24.47.12.01.11.01h.12l.12-.01.12-.01.11-.02.12-.04.11-.03.11-.04.1-.05.1-.05.09-.06.09-.06.07-.05.07-.07.05-.06-.04-.04-.05.07-.06.05-.08.06-.07.06-.09.05-.1.05-.1.05-.1.04-.11.03-.12.04-.11.02-.11.01-.12.01-.12.01-.11-.02-.11-.01-.01.05z" data-color="1"></path>
            <path fill-rule="evenodd" fill="#2F3030" d="m119.97 23.21.01.09.01.1.01.1.02.09.02.09.03.1.04.09.05.09.06.09.06.07.09.08.09.07.11.06.12.06.14.04.14.04.01-.05-.15-.04-.12-.04-.12-.06-.1-.05-.09-.07-.07-.07-.07-.08-.06-.08-.04-.08-.04-.09-.03-.09-.02-.09-.02-.09-.01-.09-.01-.1v-.09h-.06z" data-color="1"></path>
            <path fill-rule="evenodd" fill="#2F3030" d="m121.46 21.63-.15.02-.14.04-.13.05-.14.05-.12.07-.13.08-.11.09-.11.1-.1.1-.08.12-.08.12-.07.14-.05.14-.04.15-.02.15-.02.16h.06l.01-.16.02-.14.04-.15.05-.14.06-.12.08-.12.09-.12.09-.1.1-.09.12-.09.11-.07.13-.07.12-.05.14-.05.13-.04.14-.02v-.05z" data-color="1"></path>
            <path fill-rule="evenodd" fill="#2F3030" d="M122.31 21.54h-.05l-.06.01h-.05l-.07.01-.07.01h-.07l-.07.01-.07.01-.07.01h-.06l-.06.01-.05.01h-.08l-.01.01h-.01v.05h.01l.02-.01h.07l.05-.01.06-.01.06-.01h.07l.07-.01.07-.01h.07l.07-.01.07-.01h.16v-.06z" data-color="1"></path>
            <path fill-rule="evenodd" fill="#2F3030" d="m122.87 21.59.02-.02h-.02l-.03-.01h-.07l-.08-.01h-.18l-.1-.01h-.1v.06h.2l.09.01h.24l.03.01h.02l.03-.02-.03.02h.02l.01-.02-.05-.01z" data-color="1"></path>
            <path fill-rule="evenodd" fill="#2F3030" d="M122.91 21.32h-.01v.08l-.01.08-.02.08v.03l.05.01v-.03l.02-.08.01-.09.01-.08h-.05z" data-color="1"></path>
            <path fill-rule="evenodd" fill="#2F3030" d="M122.42 20.91v.01h.09l.09.03.08.03.07.05.06.06.05.07.03.08.02.08h.05l-.02-.09-.03-.09-.06-.08-.07-.07-.08-.06-.09-.03-.09-.03-.1-.01v.05z" data-color="1"></path>
            <path fill-rule="evenodd" fill="#2F3030" d="m120.64 21.11.05.03.04-.02.05-.03.07-.03.09-.02.1-.02.11-.02.12-.02.12-.02.13-.02.13-.01.13-.01.14-.01h.5v-.05h-.12l-.12-.01h-.13l-.13.01-.14.01-.13.01-.13.01-.13.02-.13.02-.12.02-.11.02-.1.02-.09.02-.08.03-.06.03-.05.03.04.02-.05-.01z" data-color="1"></path>
            <path fill-rule="evenodd" fill="#2F3030" d="m120.95 20.1-.02.02-.29.99.05.01.29-.99-.01.02-.02-.05h-.01l-.01.02.02-.02z" data-color="1"></path>
            <path fill-rule="evenodd" fill="#2F3030" d="m122.79 19.91-.14-.01-.14-.01h-.39l-.12.01-.12.01h-.12l-.11.01-.11.02-.1.02-.11.02-.1.02-.09.03-.1.03-.09.04.02.05.09-.04.09-.03.09-.03.1-.02.11-.02.1-.02.1-.02.11-.01h.12l.12-.01h.51l.14.01h.14v-.05z" data-color="1"></path>
            <path fill-rule="evenodd" fill="#2F3030" d="m124.2 21.31.02-.17v-.16l-.02-.14-.05-.14-.07-.13-.08-.11-.1-.11-.1-.09-.12-.08-.12-.07-.14-.06-.12-.05-.14-.04-.13-.02-.13-.03h-.11v.05h.11l.12.02.13.03.13.04.13.05.12.06.13.07.11.07.1.09.09.1.08.11.06.12.05.12.02.14v.16l-.02.16.05.01z" data-color="1"></path>
            <path fill-rule="evenodd" fill="#2F3030" d="m123.77 23.49.43-2.18-.05-.01-.43 2.18.05.01z" data-color="1"></path>
            <path fill-rule="evenodd" fill="#2F3030" d="m131.25 23.83.01-.09.03-.11.06-.1.07-.09.09-.07.1-.05.11-.03.11-.01.12.01.1.03.1.05.09.07.07.09.06.1.03.11.01.09h-.12l-.01-.07-.02-.09-.04-.08-.06-.07-.06-.06-.08-.04-.09-.03-.1-.01-.09.01-.09.03-.08.04-.07.06-.05.07-.04.08-.03.09-.01.07h-.12z" data-color="1"></path>
            <path fill-rule="evenodd" fill="#2F3030" d="M131.63 23.83v-.24h.27l.05.01.03.01.03.02.02.02.02.03v.03l.01.02-.01.04v.03l-.02.03h-.18.05l.02-.01.02-.01.02-.01.01-.02.01-.02v-.03l-.01-.02-.01-.01-.01-.01-.01-.01h-.02l-.02-.01h-.17v.16h-.1z" data-color="1"></path>
            <path fill-rule="evenodd" fill="#2F3030" d="M131.25 23.83v.03l.01.12.03.11.06.1.07.08.09.07.1.06.11.03.11.01.12-.01.1-.03.1-.06.09-.07.07-.08.06-.1.03-.11.01-.12v-.03h-.12v.03l-.01.1-.02.09-.04.08-.06.07-.06.05-.08.05-.09.03-.1.01-.09-.01-.09-.03-.08-.05-.07-.05-.05-.07-.04-.08-.03-.09-.01-.1v-.03h-.12z" data-color="1"></path>
            <path fill-rule="evenodd" fill="#2F3030" d="M131.63 23.83v.26h.1v-.21h.1l.13.21h.08l-.13-.21h.03l.03-.01.03-.01.02-.01.01-.02h-.18l-.02.01h-.1v-.01h-.1z" data-color="1"></path>
            <path d="M131.84 24.5h-.25l-.11-.06-.09-.07-.08-.09-.07-.12v-.51l.06-.1.08-.1.09-.07.11-.06h.54l.11.05.1.08.08.09.06.11v.48l-.06.11-.07.09-.1.08-.11.06h-.12zm-.27-1v.65l.05.06.06.05h.46l.06-.06h-.21l-.12-.2v.2h-.22zm.44.38.13.21v-.54l-.05-.05h-.4l-.09.06h.4l.09.05v.23zm.29-.3v.52-.32zm-1 .45v-.46.43zm.44-.29h.13-.13z" fill="#2F3030" data-color="1"></path>
            <path fill-rule="evenodd" fill="#2F3030" d="M124.06 24.4h1.16l.42-2.35.01-.09.03-.09.02-.09.04-.09.04-.09.05-.09.05-.08.07-.08.07-.07.08-.07.1-.06.11-.05.12-.04.13-.03.14-.03.16-.01h.11l.18-1.06-.11.01-.12.01-.1.02-.1.03-.09.03-.08.05-.09.04-.08.05-.07.06-.07.06-.07.06-.06.07-.06.07-.07.08-.06.07-.06.08.13-.74h-1.16l-.77 4.42z" data-color="1"></path>
            <path d="M125.27 24.46H124l.79-4.54h1.28l-.1.58.1-.12.14-.13.15-.13.17-.1h.7l-.2 1.18h-.8l-.08.06-.15.13-.06.07-.1.16-.07.18-.05.17v.09zm-1.14-.12h1l.47-2.34.05-.19v-.19l.11-.18.07-.08.08-.08.09-.06.1-.07.11-.05.13-.05h.51l.16-.94h-.25l-.18.06-.16.08h-.07l-.14.11-.19.2-.18.23-.1-.05.11-.67h-1z" fill="#2F3030" data-color="1"></path>
            <path fill-rule="evenodd" fill="#2F3030" d="M113.12 24.4h1.19l.39-2.35.02-.09.02-.09.02-.08.03-.09.03-.08.04-.08.05-.07.06-.07.07-.06.07-.07.09-.05.1-.04.12-.04.12-.03.15-.02.15-.02h.02l.02.01h.04l.02.01h.01l.02.01v-.02l.02-.05.01-.07.02-.1.03-.1.03-.12.04-.11.04-.12.03-.08.04-.08.04-.07.04-.07.04-.07.03-.05.02-.03.01-.01h-.02l-.02-.01h-.09l-.03-.01h-.03l-.13.01-.12.01-.1.02-.1.03-.1.03-.09.04-.07.04-.08.05-.07.06-.06.06-.07.06-.06.07-.06.07-.06.08-.06.08-.06.08.15-.74h-1.19l-.77 4.42z" data-color="1"></path>
            <path d="M114.35 24.46h-1.3l.79-4.54h1.31l-.11.56.19-.21.07-.07.15-.11.18-.08h.1l.21-.05h.55l-.27.47v.07l-.2.72h-.69l-.18.09-.13.12-.05.06v.15l-.06.16v.25zm-1.16-.12h1.07l.44-2.57.07-.17v-.16l.06-.08.15-.13.1-.06.11-.05h.65l.09-.4.08-.24.08-.16.13-.23h-.51l-.16.07-.13.1-.12.12-.13.14-.17.24-.11-.05.11-.71h-1.07z" fill="#2F3030" data-color="1"></path>
            <path fill-rule="evenodd" fill="#2F3030" d="M131.26 28.74v-.01l.03-.11.06-.1.07-.08.09-.06.1-.05.11-.03.11-.01.12.01.1.03.1.05.09.06.07.08.06.1.03.11v.01h-.12l-.02-.08-.04-.08-.06-.07-.06-.06-.08-.04-.09-.03-.1-.01-.09.01-.09.03-.08.04-.07.06-.05.07-.04.08-.03.08h-.12z" data-color="1"></path>
            <path fill-rule="evenodd" fill="#2F3030" d="M131.63 28.74v-.14h.27l.05.01h.03l.03.02.02.02.02.03v.03l.01.03h-.08v-.02l-.01-.02-.01-.01-.01-.01-.01-.01-.02-.01h-.19v.08h-.1z" data-color="1"></path>
            <path fill-rule="evenodd" fill="#2F3030" d="m131.25 28.84.01-.1h.12v.01l-.01.09h-.12z" data-color="1"></path>
            <path fill-rule="evenodd" fill="#2F3030" d="M131.63 28.84v-.1h.1v.09h.1l.04-.01.03-.01h.02l.02-.01.02-.01.01-.02.01-.02v-.01h.08l-.01.03v.03l-.02.02-.01.02h-.39z" data-color="1"></path>
            <path fill-rule="evenodd" fill="#2F3030" d="m132.29 28.84-.01-.09v-.01h.12l.01.1h-.12z" data-color="1"></path>
            <path fill-rule="evenodd" fill="#2F3030" d="M131.25 28.84v.01l.01.12.03.11.06.1.07.08.09.08.1.04.11.04.11.01.12-.01.1-.04.1-.04.09-.08.07-.08.06-.1.03-.11.01-.12v-.01h-.12v.01l-.01.1-.02.09-.04.07-.06.07-.06.06-.08.05-.09.03-.1.01-.09-.01-.09-.03-.08-.05-.07-.06-.05-.07-.04-.07-.03-.09-.01-.1v-.01h-.12z" data-color="1"></path>
            <path fill-rule="evenodd" fill="#2F3030" d="M131.63 28.84v.23h.1v-.2h.1l.13.2h.08l-.13-.2h.03l.03-.01.03-.01.02-.01h-.39z" data-color="1"></path>
            <path d="M113.25 21.29v-.46l-.09-.19-.1-.17-.12-.14-.14-.11-.15-.1-.25-.12-.16-.06h-1.01l-.29.05-.27.07-.24.1-.21.13-.18.14-.16.15-.13.17-.12.17-.09.19-.08.17-.06.18-.05.17V23l.07.24.1.22.12.19.14.17.16.14.17.12.19.11.19.07.2.07.21.05h2.01l.17-1-.12.07-.12.07-.12.05h-1.68l-.07-.05h-.07l-.07-.06-.06-.06-.06-.07v-.58h2.68v-.25l.06-.35v-.32zm-1.12.38h-1.51v-.52l.05-.06v-.06L111 21l.06-.05h.88v.69z" fill-rule="evenodd" fill="#2F3030" data-color="1"></path>
            <path d="M428.8 23.26a7.32 7.32 0 0 0 7.37-7 7.2 7.2 0 0 0-7.37-7.11h-3.32a7 7 0 0 0-7.12 7.11 7.07 7.07 0 0 0 7.12 7z" fill="#FAFBEF" data-color="2"></path>
            <path d="M427 20v-7.62a4.09 4.09 0 0 1 0 7.62m-5.6-3.8a4.1 4.1 0 0 1 2.6-3.82V20a4.12 4.12 0 0 1-2.63-3.82m4.09-6.46A6.46 6.46 0 1 0 432 16.2a6.46 6.46 0 0 0-6.46-6.46" fill="#2F3030" data-color="1"></path>
            <path d="M411.15 28.08c0 .57.41.64.78.64a2.08 2.08 0 0 0 2.14-2.33 2.25 2.25 0 0 0-2.34-2.4h-.58zm-.73-3.5c0-.67-.35-.63-.69-.64v-.19h2.18a2.72 2.72 0 0 1 3 2.61c0 .74-.43 2.6-3.07 2.6h-2.09v-.2c.45 0 .67-.06.69-.56z" fill="#FAFBEF" data-color="2"></path>
            <path d="M416 24.4a.37.37 0 1 1 0-.73.37.37 0 0 1 0 .73m-.8 4.36h.14c.21 0 .36 0 .36-.24v-2c0-.32-.11-.37-.39-.52v-.12c.35-.1.77-.24.8-.26a.27.27 0 0 1 .13 0s.06 0 .06.1v2.87c0 .24.16.24.37.24h.12V29h-1.59z" fill="#FAFBEF" data-color="2"></path>
            <path d="M417.45 26.54c0-.28-.08-.35-.43-.49v-.14c.32-.11.63-.21 1-.36 0 0 .05 0 .05.07v.49a2.14 2.14 0 0 1 1.29-.56c.63 0 .86.46.86 1v1.93c0 .24.16.24.37.24h.13V29h-1.59v-.2h.13c.21 0 .36 0 .36-.24v-1.98c0-.42-.26-.63-.69-.63a2 2 0 0 0-.86.36v2.21c0 .24.16.24.37.24h.14V29H417v-.2h.14c.2 0 .35 0 .35-.24z" fill="#FAFBEF" data-color="2"></path>
            <path d="M422.59 26.66c.19 0 .21-.1.21-.19a.63.63 0 0 0-.65-.68c-.45 0-.77.33-.86.87zm-1.32.24a2.78 2.78 0 0 0 0 .43 1.25 1.25 0 0 0 1.1 1.29 1.39 1.39 0 0 0 1-.5l.11.1a1.74 1.74 0 0 1-1.38.85 1.5 1.5 0 0 1-1.43-1.63 1.66 1.66 0 0 1 1.51-1.89 1.18 1.18 0 0 1 1.26 1.17.57.57 0 0 1 0 .13h-.06z" fill="#FAFBEF" data-color="2"></path>
            <path d="M423.61 28.76h.2c.21 0 .36 0 .36-.24v-2.1c0-.23-.27-.28-.39-.34V26c.55-.23.85-.42.92-.42s.06 0 .06.1v.67c.18-.29.5-.77 1-.77a.4.4 0 0 1 .43.39.37.37 0 0 1-.35.38c-.24 0-.24-.18-.5-.18a.64.64 0 0 0-.54.62v1.76c0 .24.15.24.36.24h.41V29h-1.89z" fill="#FAFBEF" data-color="2"></path>
            <path d="M426.48 27.92a1 1 0 0 0 .94.91.53.53 0 0 0 .61-.53c0-.88-1.63-.6-1.63-1.8a1 1 0 0 1 1.16-.95 1.93 1.93 0 0 1 .85.21v.76h-.17a.77.77 0 0 0-.81-.73.53.53 0 0 0-.59.49c0 .87 1.73.6 1.73 1.77 0 .5-.39 1-1.28 1a2 2 0 0 1-.91-.26l-.08-.85z" fill="#FAFBEF" data-color="2"></path>
            <path d="M435.36 25.1h-.19a1.41 1.41 0 0 0-1.59-1.22 2.13 2.13 0 0 0-2.11 2.36 2.43 2.43 0 0 0 2.22 2.59 1.53 1.53 0 0 0 1.51-1.29h.17l-.17 1.09a4.13 4.13 0 0 1-1.65.4 2.66 2.66 0 0 1-2.85-2.81 2.73 2.73 0 0 1 2.82-2.62 5.35 5.35 0 0 1 1.76.39z" fill="#FAFBEF" data-color="2"></path>
            <path d="M435.63 28.76h.14c.21 0 .36 0 .36-.24v-4.16c0-.48-.11-.5-.4-.58v-.12a5.14 5.14 0 0 0 .77-.32 1.09 1.09 0 0 1 .16-.08s.06 0 .06.1v5.16c0 .24.17.24.38.24h.12V29h-1.59z" fill="#FAFBEF" data-color="2"></path>
            <path d="M440.42 28.55c0 .13.08.14.2.14h.3v.16a6.87 6.87 0 0 0-1.07.23v-.61a2 2 0 0 1-1.32.63.81.81 0 0 1-.82-.89v-1.94c0-.19 0-.38-.45-.42v-.14l1-.05c.09 0 .09.05.09.22v1.92c0 .22 0 .86.65.86a1.69 1.69 0 0 0 .9-.45v-2c0-.14-.36-.23-.63-.3v-.14c.67 0 1.09-.1 1.17-.1s.06.05.06.13z" fill="#FAFBEF" data-color="2"></path>
            <path d="M441.9 28.11a.8.8 0 0 0 .77.76c.8 0 1.13-.78 1.13-1.44a1.42 1.42 0 0 0-1.19-1.43 1.15 1.15 0 0 0-.71.35zm0-2a1.9 1.9 0 0 1 1.11-.53 1.45 1.45 0 0 1 1.39 1.56 1.89 1.89 0 0 1-1.79 2 2.18 2.18 0 0 1-1-.26l-.23.17-.15-.08a8.42 8.42 0 0 0 .1-1.33v-3.28c0-.48-.11-.5-.39-.58v-.12a5.14 5.14 0 0 0 .77-.32l.16-.08s.06 0 .06.1z" fill="#FAFBEF" data-color="2"></path>
            <path d="M409.73 33.29c.15 0 .3 0 .3-.23v-2.12c0-.22-.15-.24-.3-.24v-.12h1.23v.12c-.15 0-.3 0-.3.24v2.12c0 .21.15.23.3.23v.12h-1.23z" fill="#FAFBEF" data-color="2"></path>
            <path d="M411 33.4v-.09c-.15 0-.32 0-.32-.25v-2.12c0-.23.17-.25.32-.25v-.09h-1.21v.09c.15 0 .32 0 .32.25v2.12c0 .23-.17.25-.32.25v.09H411m0 0h-1.25v-.16h.07c.15 0 .28 0 .29-.21v-2.09c0-.2-.14-.22-.29-.22h-.07v-.16h1.23v.16h-.07c-.15 0-.28 0-.28.22v2.12c0 .2.13.21.28.21h.09v.16z" fill="#FAFBEF" data-color="2"></path>
            <path d="M413.75 32.61v-1.53a.33.33 0 0 0-.35-.38h-.09v-.12h1.06v.12h-.06c-.17 0-.36 0-.36.52v1.85a2.5 2.5 0 0 0 0 .4h-.16l-2.09-2.32v1.67c0 .35.07.47.38.47h.07v.12h-1.07v-.12h.05c.28 0 .37-.19.37-.51v-1.71a.37.37 0 0 0-.37-.37h-.05v-.12h.83z" fill="#FAFBEF" data-color="2"></path>
            <path d="M413.74 32.61zm0 0zm.08.85h.18a2.56 2.56 0 0 1 0-.39v-1.85c0-.49.21-.53.38-.53h.05v-.09h-1.03v.09h.07a.35.35 0 0 1 .37.4v1.53l-1.8-2h-.82v.09a.38.38 0 0 1 .39.38v1.71c0 .32-.09.53-.39.53v.09h1.04v-.09h-.05c-.32 0-.39-.14-.4-.49V31.1zm.16 0h-.17l-2.06-2.3v1.63c0 .35.06.45.36.45h.09v.16h-1.1v-.16h.07c.27 0 .35-.17.35-.49v-1.68a.35.35 0 0 0-.35-.35h-.07v-.16h.84l1.78 2v-1.47c0-.33-.22-.37-.33-.37h-.11v-.16h1.06v.16h-.08c-.16 0-.34 0-.34.5v1.85a2.55 2.55 0 0 0 0 .4z" fill="#FAFBEF" data-color="2"></path>
            <path d="M415 30.78c-.3 0-.31.08-.37.37h-.13c0-.11 0-.22.05-.34a2.07 2.07 0 0 0 0-.35h.09c0 .13.14.12.25.12H417c.11 0 .21 0 .22-.12h.1c0 .11 0 .22-.05.33v.33h-.13c0-.15 0-.39-.3-.39h-.66v2.16c0 .32.14.35.33.35h.08v.12h-1.35v-.12h.08c.23 0 .34 0 .34-.34v-2.12z" fill="#FAFBEF" data-color="2"></path>
            <path d="M416.59 33.43h-1.36v-.16h.09c.23 0 .32 0 .32-.32V30.8H415h.69V33c0 .33-.14.36-.36.36h-.06v.09h1.31v-.09h-.06c-.19 0-.35-.05-.35-.37v-2.22h.68c.28 0 .31.23.32.38h.09v-.32a2.91 2.91 0 0 1 0-.31h-.06c0 .11-.14.12-.24.12h-2.11c-.1 0-.2 0-.24-.12h-.07v.33c0 .11 0 .22-.05.33h.09c0-.29.09-.38.39-.37-.3 0-.29.06-.36.36h-.16v-.34a2.07 2.07 0 0 0 0-.35h.13c0 .1.1.1.21.1H417c.11 0 .2 0 .2-.11h.12v.66l-.14.05c0-.15 0-.37-.29-.37h-.64v2.14c0 .31.12.33.31.33h.1v.16z" fill="#FAFBEF" data-color="2"></path>
            <path d="M417.45 33.29h.05c.15 0 .3 0 .3-.23v-2.12c0-.22-.15-.24-.3-.24h-.05v-.12h2v.62h-.12c0-.27-.07-.48-.49-.48h-.57v1.06h.49c.24 0 .29-.13.32-.35h.12v.93h-.12c0-.25 0-.4-.32-.4h-.49V33c0 .27.24.27.5.27.49 0 .7 0 .82-.5h.12a4.89 4.89 0 0 0-.14.64h-2.17z" fill="#FAFBEF" data-color="2"></path>
            <path d="M419.6 33.4c0-.21.09-.41.13-.62h-.08c-.12.46-.35.5-.83.49-.26 0-.51 0-.51-.28V32h.5c.28 0 .31.17.33.4h.09v-.91h-.09c0 .22-.09.36-.33.36h-.5v-1.1h.58c.42 0 .49.22.51.47h.09v-.4a1.15 1.15 0 0 1 0-.19h-2v.09c.15 0 .32 0 .32.25v2.12c0 .23-.17.25-.32.25v.09h2.14m0 0h-2.17v-.16h.07c.15 0 .28 0 .29-.21v-2.12c0-.2-.14-.22-.29-.22h-.07v-.16h2v.64h-.14c0-.27-.05-.46-.47-.46h-.55v1h.47c.23 0 .27-.13.3-.35h.16v.93h-.14c0-.25 0-.38-.3-.39h-.47V33c0 .25.21.25.48.25.49 0 .68 0 .8-.48h.13c0 .22-.1.43-.13.65z" fill="#FAFBEF" data-color="2"></path>
            <path d="M420.82 32h.2c.41 0 .63-.15.63-.63a.55.55 0 0 0-.6-.59h-.23zm-.52-1c0-.29-.16-.31-.29-.31h-.07v-.12h1.28c.52 0 1 .14 1 .72a.77.77 0 0 1-.56.71l.69 1a.43.43 0 0 0 .39.24v.12h-.77a9.81 9.81 0 0 1-.85-1.31h-.27V33c0 .31.15.32.33.32h.08v.12h-1.29v-.12h.03c.16 0 .29-.07.29-.22z" fill="#FAFBEF" data-color="2"></path>
            <path d="M421 31.94c.4 0 .61-.15.61-.62a.55.55 0 0 0-.58-.58.91.91 0 0 0-.21 0v1.18zm-.2 0v-1.21a1.13 1.13 0 0 1 .23 0 .57.57 0 0 1 .61.61c0 .49-.23.65-.64.65zm0 .11h.28a14 14 0 0 0 .84 1.31h.76v-.09a.47.47 0 0 1-.39-.25L421.6 32a.73.73 0 0 0 .55-.69c0-.57-.44-.7-.95-.7h-1.26v.09h.06c.13 0 .31 0 .31.32v2.06c0 .17-.15.24-.31.24v.09h1.25v-.09h-.06c-.18 0-.35 0-.35-.34v-.89zm1.89 1.35h-.79a10.72 10.72 0 0 1-.84-1.3h-.24v.9c0 .3.13.3.31.3h.1v.16h-1.33v-.16h.1c.15 0 .27-.06.28-.2V31c0-.29-.15-.28-.28-.29h-.09v-.16h1.28c.52 0 1 .15 1 .74a.78.78 0 0 1-.56.72l.68 1a.43.43 0 0 0 .39.23v.14z" fill="#FAFBEF" data-color="2"></path>
            <path d="M425.47 32.61v-1.53a.34.34 0 0 0-.36-.38H425v-.12h1.07v.12H426c-.17 0-.36 0-.36.52v1.85a2.55 2.55 0 0 0 0 .4h-.15l-2.09-2.32v1.67c0 .35.07.47.38.47h.07v.12h-1.07v-.12h.05c.28 0 .37-.19.37-.51v-1.71a.37.37 0 0 0-.37-.37h-.05v-.12h.82z" fill="#FAFBEF" data-color="2"></path>
            <path d="M425.46 32.61zm0 0zm.08.85h.13a2.48 2.48 0 0 1 0-.39v-1.85c0-.49.21-.53.38-.53v-.09h-1.03v.09h.07a.35.35 0 0 1 .37.39v1.54l-1.81-2h-.81v.09a.37.37 0 0 1 .38.38v1.71c0 .32-.09.53-.38.53v.09h1.04v-.09h-.05c-.32 0-.4-.14-.4-.49V31.1zm.15 0h-.16l-2.06-2.3v1.63c0 .35.06.45.36.45h.09v.16h-1.07v-.16h.07c.27 0 .35-.17.35-.49v-1.68a.35.35 0 0 0-.35-.35h-.07v-.16h.83l1.79 2v-1.5a.32.32 0 0 0-.34-.36H425v-.16h1.07v.16H426c-.17 0-.34 0-.34.5v1.85a2.55 2.55 0 0 0 0 .4z" fill="#FAFBEF" data-color="2"></path>
            <path d="m427.35 31-.35 1.18h.76zm-.59 1.79a1.35 1.35 0 0 0-.1.32c0 .12.18.14.31.14v.12h-.93v-.12a.36.36 0 0 0 .35-.26l.65-1.86a3.28 3.28 0 0 0 .15-.51 1.84 1.84 0 0 0 .37-.17h.06v.1l.74 2.13c0 .14.1.29.15.41a.27.27 0 0 0 .27.16v.12h-1.17v-.12c.1 0 .26 0 .26-.11a1.14 1.14 0 0 0-.09-.3l-.15-.47h-.93z" fill="#FAFBEF" data-color="2"></path>
            <path d="M427.33 31zm-.33 1.17h.72l-.36-1.09zm0 0 .38-1.18.38 1.18zm.83 1.19h1.13v-.08a.27.27 0 0 1-.28-.17l-.15-.42-.75-2.12v-.1a2 2 0 0 1-.36.17 4.74 4.74 0 0 1-.15.5l-.79 1.86a.39.39 0 0 1-.37.28v.08h.89v-.08c-.13 0-.32 0-.32-.16a1.62 1.62 0 0 1 .09-.32l.13-.44h.95l.16.49a1.35 1.35 0 0 1 .08.3c0 .12-.18.13-.27.13zm1.15 0h-1.17v-.16h.06c.1 0 .24 0 .24-.09a1.67 1.67 0 0 0-.08-.29l-.16-.46h-.89l-.13.41a1.78 1.78 0 0 0-.09.31c0 .1.15.12.29.12H427v.16h-.92v-.16a.33.33 0 0 0 .33-.25l.65-1.86a4.36 4.36 0 0 0 .17-.51 2.4 2.4 0 0 0 .36-.18v.1l.75 2.12c.05.14.1.29.15.41a.23.23 0 0 0 .25.15v.16z" fill="#FAFBEF" data-color="2"></path>
            <path d="M429.1 30.78c-.31 0-.32.08-.38.37h-.12v-.69h.1c0 .13.13.12.24.12h2.09c.11 0 .21 0 .22-.12h.1v.66h-.12c0-.15 0-.39-.3-.39h-.67v2.16c0 .32.14.35.34.35h.07v.12h-1.34v-.12h.07c.23 0 .34 0 .34-.34v-2.12z" fill="#FAFBEF" data-color="2"></path>
            <path d="M430.69 33.43h-1.36v-.16h.09c.23 0 .32 0 .32-.32V30.8h-.64.68V33c0 .33-.13.36-.36.36h-.06v.09h1.32v-.09h-.06c-.2 0-.36-.05-.36-.37v-2.22h.74c.27 0 .3.23.31.38h.09v-.32a2.91 2.91 0 0 1 0-.31h-.06c0 .11-.13.12-.24.12H429c-.1 0-.2 0-.24-.12h-.06a1.84 1.84 0 0 1 0 .33v.33h.08c.06-.29.09-.38.4-.37-.31 0-.3.06-.36.36h-.16c0-.11 0-.23.05-.34s0-.23 0-.35h.13c0 .1.11.1.21.1h2.11c.12 0 .2 0 .21-.11h.11c0 .11 0 .22-.05.33s0 .22 0 .33l-.14.05c0-.15 0-.37-.28-.37h-.65v2.14c0 .31.12.33.32.33h.09v.16z" fill="#FAFBEF" data-color="2"></path>
            <path d="M431.57 33.29h.06c.14 0 .3 0 .3-.23v-2.12c0-.22-.16-.24-.3-.24h-.06v-.12h1.24v.12h-.06c-.15 0-.3 0-.3.24v2.12c0 .21.15.23.3.23h.06v.12h-1.24z" fill="#FAFBEF" data-color="2"></path>
            <path d="M432.79 33.4v-.09c-.14 0-.32 0-.32-.25v-2.12c0-.23.18-.25.32-.25v-.09h-1.2v.09c.14 0 .31 0 .31.25v2.12c0 .23-.17.25-.31.25v.09h1.2m0 0h-1.24v-.16h.08c.14 0 .28 0 .28-.21v-2.09c0-.2-.14-.22-.28-.22h-.08v-.16h1.24v.16h-.07c-.15 0-.28 0-.28.22v2.12c0 .2.13.21.28.21h.07v.16z" fill="#FAFBEF" data-color="2"></path>
            <path d="M434.49 33.3c.79 0 .92-.7.92-1.29s-.32-1.31-1-1.31-.92.63-.92 1.18c0 .72.33 1.42 1 1.42m-.06-2.78a1.42 1.42 0 0 1 1.55 1.4 1.49 1.49 0 0 1-1.53 1.55 1.43 1.43 0 0 1-1.52-1.47 1.47 1.47 0 0 1 1.5-1.5" fill="#FAFBEF" data-color="2"></path>
            <path d="M433.48 31.88c0-.55.21-1.2.94-1.2s1 .73 1 1.33-.14 1.3-.94 1.3c.77 0 .9-.68.9-1.27s-.31-1.29-1-1.29-.9.61-.91 1.16c0 .72.34 1.4 1 1.4-.68 0-1-.7-1-1.43m-.57.14a1.49 1.49 0 0 1 1.52-1.52A1.45 1.45 0 0 0 433 32a1.41 1.41 0 0 0 1.5 1.44 1.47 1.47 0 0 0 1.5-1.52 1.4 1.4 0 0 0-1.53-1.38 1.45 1.45 0 0 1 1.53 1.38 1.51 1.51 0 0 1-1.55 1.57 1.45 1.45 0 0 1-1.54-1.49" fill="#FAFBEF" data-color="2"></path>
            <path d="M438.71 32.61v-1.53a.33.33 0 0 0-.35-.38h-.09v-.12h1.07v.12h-.06c-.17 0-.36 0-.36.52v1.85a2.55 2.55 0 0 0 0 .4h-.15l-2.09-2.32v1.67c0 .35.07.47.38.47h.07v.12h-1.08v-.12h.06c.28 0 .36-.19.36-.51v-1.71a.36.36 0 0 0-.37-.37h-.05v-.12h.83z" fill="#FAFBEF" data-color="2"></path>
            <path d="M438.71 32.61zm0 0zm.09.85h.13a2.55 2.55 0 0 1 0-.39v-1.85c0-.49.2-.53.38-.53v-.09h-1.03v.09h.07a.35.35 0 0 1 .37.4v1.53l-1.8-2h-.81v.09a.38.38 0 0 1 .39.38v1.71c0 .32-.09.53-.38.53v.09h1.04v-.09h-.05c-.32 0-.4-.14-.4-.49V31.1zm.15 0h-.17l-2.06-2.3v1.63c0 .35.06.45.37.45h.08v.16h-1.11v-.16h.08c.27 0 .34-.17.35-.49v-1.68a.35.35 0 0 0-.36-.35h-.07v-.16h.84l1.79 2v-1.47c0-.33-.22-.37-.34-.37h-.11v-.16h1.07v.16h-.08c-.17 0-.34 0-.35.5v1.85a2.5 2.5 0 0 0 0 .4z" fill="#FAFBEF" data-color="2"></path>
            <path d="m440.59 31-.38 1.14h.79zm-.59 1.83a1.83 1.83 0 0 0-.09.32c0 .12.17.14.31.14v.12h-.93v-.12a.37.37 0 0 0 .36-.26l.65-1.86a4.91 4.91 0 0 0 .15-.51 1.84 1.84 0 0 0 .37-.17h.06v.1l.75 2.13c0 .14.1.29.15.41a.27.27 0 0 0 .27.16v.12H441v-.12c.09 0 .25 0 .25-.11a1 1 0 0 0-.08-.3l-.16-.47h-.92z" fill="#FAFBEF" data-color="2"></path>
            <path d="M440.58 31zm-.35 1.13h.71l-.35-1.09zm-.05 0 .39-1.18.43 1.25zm.83 1.2h1.14v-.08a.27.27 0 0 1-.28-.17c-.06-.13-.11-.28-.16-.42L441 30.6v-.1a2 2 0 0 1-.36.17 3.22 3.22 0 0 1-.16.5l-.76 1.83a.38.38 0 0 1-.37.28v.08h.89v-.08c-.14 0-.32 0-.33-.16a1.62 1.62 0 0 1 .09-.32l.14-.44h.94l.17.49a1.35 1.35 0 0 1 .08.3c0 .12-.18.13-.27.13zm1.15 0H441v-.16c.09 0 .23 0 .23-.09a1.07 1.07 0 0 0-.08-.29l-.15-.46h-.9l-.12.41a1.78 1.78 0 0 0-.09.31c0 .1.15.12.29.12h.06v.16h-1v-.16a.34.34 0 0 0 .34-.25l.65-1.86a4.32 4.32 0 0 0 .16-.51 2.57 2.57 0 0 0 .37-.18.42.42 0 0 1 0 .1l.75 2.12c.05.14.1.29.15.41a.23.23 0 0 0 .25.15v.16z" fill="#FAFBEF" data-color="2"></path>
            <path d="M443.19 33c0 .16.11.21.24.22a2.44 2.44 0 0 0 .54 0 .6.6 0 0 0 .38-.22.78.78 0 0 0 .13-.3h.12c-.05.24-.1.46-.15.69h-2.14v-.12h.05c.15 0 .31 0 .31-.27v-2.06c0-.22-.16-.24-.31-.24h-.05v-.12h1.25v.12h-.1c-.15 0-.27 0-.27.22z" fill="#FAFBEF" data-color="2"></path>
            <path d="m444.43 33.4.15-.66h-.09a.89.89 0 0 1-.12.29.63.63 0 0 1-.4.22h-.54c-.14 0-.26-.07-.26-.24v-2.1c0-.22.14-.23.29-.23h.08v-.08h-1.22v.09c.15 0 .32 0 .32.24V33c0 .26-.17.29-.32.29v.09h2.11m0 0h-2.16v-.16h.07c.15 0 .29 0 .29-.25v-2.04c0-.19-.14-.21-.29-.21h-.07v-.16h1.26v.16h-.12c-.16 0-.25 0-.26.2V33c0 .15.1.19.23.21h.62a.59.59 0 0 0 .38-.21.89.89 0 0 0 .12-.29h.16c-.05.23-.11.46-.16.69z" fill="#FAFBEF" data-color="2"></path>
            <path fill="#2F3030" d="M201.03 23.64h5.13v1.37h-3.56v1.2h3.46v1.21h-3.46v1.26h3.56v1.34h-5.13v-6.38z" data-color="1"></path>
            <path d="M216.06 26.13c1.93.09 2.09 1.06 2.09 2.08a1.86 1.86 0 0 1-2 1.84h-3.29v-1.37h2.57c.43 0 1.08 0 1.08-.61 0-.29-.11-.48-.58-.53-.2 0-1-.07-1.08-.07-1.74 0-2.15-.91-2.15-2a1.76 1.76 0 0 1 1.87-1.85h3.29V25h-2.41c-.54 0-1.14-.06-1.14.56 0 .39.3.47.67.5z" fill="#2F3030" data-color="1"></path>
            <path d="M210.16 26.13c1.93.09 2.09 1.06 2.09 2.08a1.86 1.86 0 0 1-2 1.84H207v-1.37h2.56c.44 0 1.09 0 1.09-.61 0-.29-.12-.48-.58-.53-.21 0-1-.07-1.09-.07-1.74 0-2.14-.91-2.14-2a1.76 1.76 0 0 1 1.87-1.85H212V25h-2.41c-.55 0-1.14-.06-1.14.56 0 .39.29.47.66.5z" fill="#2F3030" data-color="1"></path>
            <path d="M191.57 23.65h-5.51l-1.79 2-1.74-2h-6.18V30h6l1.88-2.11 1.82 2.11h3v-2.13h2.11c.81 0 2.29 0 2.29-2.27a1.77 1.77 0 0 0-1.88-1.95zm-10.06 5h-3.61v-1.23h3.45v-1.21h-3.45V25h3.81l1.53 1.74zm6 .74-2.26-2.66 2.26-2.5zm3.49-2.84h-1.95V25h2a.75.75 0 0 1 .86.74c0 .44-.23.81-.91.81z" fill="#2F3030" data-color="1"></path>
            <path d="M199.14 27.13a1.75 1.75 0 0 0 1.09-1.77 1.69 1.69 0 0 0-1.89-1.71h-4.07V30h1.57v-2.21h2c.54 0 .75.54.77 1.08v1.17h1.53l-.06-1.31c.09-1.03-.19-1.52-.94-1.6zm-1.35-.66h-1.95V25h2a.75.75 0 0 1 .86.74c-.04.44-.27.73-.91.73z" fill="#2F3030" data-color="1"></path>
            <path fill="#2F3030" d="M196.47 12.61V19h-1.57v-6.39h1.57z" data-color="1"></path>
            <path fill="#2F3030" d="M182.06 12.62h5.12v1.37h-3.55v1.2h3.45v1.21h-3.45v1.26h3.55V19h-5.12v-6.38z" data-color="1"></path>
            <path d="M193 16.1a1.74 1.74 0 0 0 1.08-1.77 1.68 1.68 0 0 0-1.88-1.71h-4.07V19h1.56v-2.25h2.06c.54 0 .75.54.77 1.09v1.17h1.52v-1.32c-.04-1.02-.31-1.51-1.04-1.59zm-1.35-.66h-2V14h2c.66 0 .87.42.87.73s-.24.71-.88.71z" fill="#2F3030" data-color="1"></path>
            <path d="m178.44 12.62-1.92 4.28-1.92-4.28h-2.46v6.15l-2.74-6.15h-2.07l-2.8 6.38h1.66l.61-1.43h3.13l.62 1.43h3.16v-4.74L175.8 19h1.43l2.15-4.67V19h1.56v-6.38zm-11.05 3.58.94-2.23 1 2.23z" fill="#2F3030" data-color="1"></path>
            <path d="M212.65 12.62V17L210 12.62h-2.32v6l-2.67-6h-2.07l-2.16 5h-1c-.38-.07-1-.34-1-1.47v-.46c0-1.5.81-1.61 1.85-1.61h1v-1.46h-2.05c-.71 0-2.26.54-2.31 3.16 0 1.77.73 3.23 2.47 3.23h2.07l.61-1.43h3.13l.62 1.43h3.09v-4.68l2.82 4.67h2.13v-6.38zM203 16.2l1-2.2 1 2.23z" fill="#2F3030" data-color="1"></path>
            <path d="M270.78 18a3.35 3.35 0 0 0-3.41 3.28 3.41 3.41 0 1 0 3.41-3.28z" fill="#FAFBEF" data-color="2"></path>
            <path d="M251.45 18.12h-1.83v6.39h1.82a3.35 3.35 0 0 0 2.28-.74 3.22 3.22 0 0 0 1.15-2.45 3.17 3.17 0 0 0-3.42-3.2zm1.45 4.8a2.37 2.37 0 0 1-1.7.51h-.34V19.2h.34a2.31 2.31 0 0 1 1.7.52 2.15 2.15 0 0 1 .69 1.59 2.2 2.2 0 0 1-.69 1.61z" fill="#FAFBEF" data-color="2"></path>
            <path fill="#FAFBEF" d="M256.69 18.12v6.39h-1.24v-6.39h1.24z" data-color="2"></path>
            <path d="M259.74 20.57c-.75-.28-1-.46-1-.8s.39-.71.93-.71a1.3 1.3 0 0 1 1 .52l.65-.85a2.76 2.76 0 0 0-1.88-.71 1.87 1.87 0 0 0-2 1.82c0 .89.4 1.34 1.57 1.76a4.41 4.41 0 0 1 .86.36.75.75 0 0 1 .37.66.91.91 0 0 1-1 .9 1.45 1.45 0 0 1-1.36-.85l-.81.78a2.5 2.5 0 0 0 2.22 1.21 2.06 2.06 0 0 0 2.2-2.1c.09-1.01-.33-1.47-1.75-1.99z" fill="#FAFBEF" data-color="2"></path>
            <path d="M262 21.32a3.3 3.3 0 0 0 3.37 3.33 3.36 3.36 0 0 0 1.56-.37v-1.47a2 2 0 0 1-1.5.7 2.09 2.09 0 0 1-2.15-2.2 2.09 2.09 0 0 1 3.65-1.48v-1.46a3.11 3.11 0 0 0-1.53-.39 3.35 3.35 0 0 0-3.4 3.34z" fill="#FAFBEF" data-color="2"></path>
            <path fill="#FAFBEF" d="m276.99 22.41-1.7-4.29h-1.36l2.71 6.55h.67l2.76-6.55h-1.35l-1.73 4.29z" data-color="2"></path>
            <path fill="#FAFBEF" d="M280.63 24.51h3.54v-1.08h-2.29V21.7h2.2v-1.08h-2.2V19.2h2.29v-1.08h-3.54v6.39z" data-color="2"></path>
            <path d="M289.1 20c0-1.2-.83-1.89-2.26-1.89H285v6.39h1.24v-2.56h.17l1.72 2.57h1.53l-2-2.69A1.7 1.7 0 0 0 289.1 20zm-2.5 1h-.37v-1.87h.39c.77 0 1.2.32 1.2.94s-.43.99-1.22.99z" fill="#FAFBEF" data-color="2"></path>
            <path d="M290 18.6c0-.11-.08-.18-.22-.18h-.18V19h.14v-.22l.15.22h.11l-.19-.23a.17.17 0 0 0 .19-.17zm-.24.07v-.14c.07 0 .1 0 .1.07s-.05.07-.12.07z" fill="#FAFBEF" data-color="2"></path>
            <path d="M289.79 18.21a.5.5 0 1 0 .49.5.5.5 0 0 0-.49-.5zm0 .9a.41.41 0 0 1 0-.81.41.41 0 0 1 0 .81z" fill="#FAFBEF" data-color="2"></path>
            <path d="M494.26 8.92h9.34a1.92 1.92 0 0 1 1.81 2.53l-4.35 20a3.21 3.21 0 0 1-2.91 2.53h-9.34a1.91 1.91 0 0 1-1.81-2.57l4.35-20a3.21 3.21 0 0 1 2.91-2.49z" fill="#FAFBEF" data-color="2"></path>
            <path d="M504.46 8.92h9.34a1.91 1.91 0 0 1 1.8 2.53l-4.34 20a3.22 3.22 0 0 1-2.92 2.53H499a1.91 1.91 0 0 1-1.81-2.53l4.34-20a3.22 3.22 0 0 1 2.93-2.53z" fill="#FAFBEF" data-color="2"></path>
            <path d="M514.66 8.92H524a1.91 1.91 0 0 1 1.81 2.53l-4.35 20a3.21 3.21 0 0 1-2.91 2.53h-9.35a1.92 1.92 0 0 1-1.81-2.53l4.35-20a3.21 3.21 0 0 1 2.92-2.53z" fill="#FAFBEF" data-color="2"></path>
            <path d="m515.39 24.38-.91 3.87h.31l-.19.8h-.31l-.06.25h-1.13l.06-.25h-2.28l.18-.74h.23l.93-3.93.18-.79h1.15l-.09.4a1.9 1.9 0 0 1 .57-.29c.29-.08 2-.11 2-.11l-.19.79zm-2 0-.23 1a4.08 4.08 0 0 1 .51-.2 3 3 0 0 1 .46-.07l.17-.72zm-.39 1.48-.24 1a2.8 2.8 0 0 1 .51-.22 3.94 3.94 0 0 1 .47-.08l.17-.73zm-.57 2.4.21-.87h.91l-.2.87zM516 23.6h1.22v.45c0 .07.06.11.2.11h.21l-.19.74h-.66c-.57 0-.79-.2-.78-.47v-.83zm.21 3.53h-1.17l.16-.66h1.33l.15-.61h-1.28l.18-.75h3.66l-.18.75h-1.23l-.15.61h1.24l-.16.66h-1.33l-.22.28h.54l.19.84a.31.31 0 0 0 0 .17.71.71 0 0 0 .29 0h.16l-.19.82h-.71a1 1 0 0 1-.31-.12.45.45 0 0 1-.23-.29l-.19-.83-.55.82a1 1 0 0 1-.86.45h-.85l.17-.72h.33a.52.52 0 0 0 .23-.07.39.39 0 0 0 .17-.14l.8-1.24zm-12.9-1.82h3.09l-.18.73H505l-.15.63h1.26l-.18.75h-1.26l-.25 1c0 .11.31.13.43.13l.63-.08-.2.83h-1.43a1.25 1.25 0 0 1-.32 0 .36.36 0 0 1-.24-.16.33.33 0 0 1-.1-.32l.33-1.34h-.71l.19-.77h.7l.15-.63h-.7l.18-.73zm2-1.31h1.27l-.19.76h-1.69l-.18.17c-.07.07-.1 0-.2.1a1.26 1.26 0 0 1-.57.14h-.55l.18-.73h.16a.52.52 0 0 0 .29-.05.58.58 0 0 0 .17-.23l.28-.58h1.26l-.19.42zm1.78-.41h1.08l-.12.54a2.53 2.53 0 0 1 .56-.36 5.08 5.08 0 0 1 .76-.17h1.75l-.47 2a2.37 2.37 0 0 1-.25.66.81.81 0 0 1-.28.27 1.54 1.54 0 0 1-.4.13h-2.22l-.37 1.56c0 .15-.06.22 0 .26a.22.22 0 0 0 .17.09l.74-.08-.2.86h-1.43a.65.65 0 0 1-.35-.07c-.08-.07-.21-.15-.21-.24a2.54 2.54 0 0 1 .07-.42l1.2-5zm2.42 2h-1.77l-.09.35h1.54a.65.65 0 0 1 .23 0zm-1.69-.32a1.78 1.78 0 0 1 .91-.42h1l.1-.42h-1.79zm2.62 1.5-.07.47a.64.64 0 0 1-.17.36.74.74 0 0 1-.57.2h-.59v.54c0 .15 0 .13.07.16s.05 0 .08 0h.76l-.19.78h-.65a2.34 2.34 0 0 1-.92-.09.31.31 0 0 1-.14-.31l-.05-2.07h1.05v.42h.43a.15.15 0 0 0 .06-.11l.08-.33zm-15-10.42a9.13 9.13 0 0 0 1.38 0c-.13.38-.85 3.29-.85 3.29l-.08.32a2.66 2.66 0 0 1-1.13 1.74 3.62 3.62 0 0 1-1.75.4c-.53 0-1.47-.08-1.8-.66a1.25 1.25 0 0 1-.15-.65l.12-.87.06-.27.72-3.15v-.21a8.29 8.29 0 0 0 1.64 0c-.13.38-.83 3.18-.83 3.18l-.14.83v.14a.65.65 0 0 0 .74.63 1.14 1.14 0 0 0 .72-.24 2.27 2.27 0 0 0 .6-1.35s.77-2.97.81-3.14zm4 5.78h-1.23l.15-.65.07-.29a10.06 10.06 0 0 0 .22-1.15c0-.1.05-.34-.23-.34a1 1 0 0 0-.37.11c-.07.25-.21.93-.28 1.24-.14.66-.15.73-.21 1.06h-1.25v-.05c.1-.39.19-.78.28-1.17a16.35 16.35 0 0 0 .37-2h.05a11.55 11.55 0 0 0 1.31-.22l.05.06-.09.34.31-.18a2.07 2.07 0 0 1 .78-.18.66.66 0 0 1 .68.38c.12.27 0 .61-.11 1.27l-.08.34c-.16.74-.19.87-.27 1.38zm2 0h-1.3a2.87 2.87 0 0 1 .15-.47c0-.1.07-.2.14-.48s.12-.57.17-.86.06-.41.09-.62l.66-.09.69-.13v.06c-.05.23-.11.46-.17.69s-.11.46-.16.69c-.11.48-.15.67-.18.79l-.07.45zm4.38-1.66a2.66 2.66 0 0 1-.53 1.13 2.08 2.08 0 0 1-1.56.6 2.25 2.25 0 0 1-.79-.13c-.76-.29-.64-1.12-.53-1.57a2.33 2.33 0 0 1 .65-1.25 2.15 2.15 0 0 1 1.46-.51 1.44 1.44 0 0 1 1.17.42 1.45 1.45 0 0 1 .19 1.3zm-1.27-.06c.13-.56.11-.91-.2-.91s-.53.47-.66 1a2.28 2.28 0 0 0-.08.55c0 .35.25.35.29.35a.45.45 0 0 0 .36-.23 2.56 2.56 0 0 0 .35-.77zm13.95-1.63c-.11.46-.23.91-.33 1.37-.23 1-.31 1.45-.39 1.95h-1.36v-.26a1.08 1.08 0 0 1-.64.3 1.55 1.55 0 0 1-.68-.12c-.76-.29-.64-1.11-.53-1.56a2.34 2.34 0 0 1 .65-1.24 1.63 1.63 0 0 1 1.4-.51.84.84 0 0 1 .42.36v-.14c.46-.06.91-.13 1.36-.21zm-1.93 2.48a1 1 0 0 0 .13-.26c0-.17.09-.34.13-.51s0-.19.06-.28c0-.4-.08-.64-.33-.64s-.54.47-.67 1a2.28 2.28 0 0 0-.08.55c0 .35.25.35.29.35a.68.68 0 0 0 .53-.22zm-7.42.87h-1.23c.05-.22.11-.43.16-.65l.06-.29c.11-.46.21-1 .23-1.15s0-.34-.24-.34a1.11 1.11 0 0 0-.37.11c-.07.25-.21.93-.27 1.24-.14.66-.15.73-.22 1.06h-1.25v-.05c.1-.39.2-.78.29-1.17a15.79 15.79 0 0 0 .36-2h.05a11.55 11.55 0 0 0 1.31-.22l.05.06-.09.34.31-.18a2.07 2.07 0 0 1 .78-.18.65.65 0 0 1 .68.38c.12.27 0 .61-.11 1.27l-.08.34c-.16.74-.18.87-.27 1.38zm4.23-5.78c.82 0 1.53 0 1.89.5a1.07 1.07 0 0 1 .19.67 2.2 2.2 0 0 1-.06.53 2.55 2.55 0 0 1-1 1.49 3.9 3.9 0 0 1-2.4.52.35.35 0 0 0-.11.11l-.2.78s-.21 1-.25 1.2h-1.46l.95-3.86.38-1.74v-.21h1.65zm.53 1.8a.68.68 0 0 0-.37-.86l-.85-.08h-.16v.16l-.4 1.72v.09h.22a2.12 2.12 0 0 0 .93-.14 1.28 1.28 0 0 0 .72-.9zm-11.93 1a1.12 1.12 0 0 1-1.08.11c-.28-.16-.24-.47.09-.69a1.12 1.12 0 0 1 1.08-.11c.33.17.29.48-.07.7zm20.58-.4-2.79 4.85-.47.8a1 1 0 0 1-.87.5h-.76l.17-.76h.38a.28.28 0 0 0 .1-.09l.27-.42c.37-.57.46-.81.86-1.46-.07-.71-.1-1-.16-1.42 0-.28-.08-.57-.11-.85-.08-.58-.06-.5-.13-.87V19c.58-.07.6-.09 1.23-.21l.05.05.08 1.6v.1c.33-.74.32-.54.73-1.48.55-.07.66-.09 1.26-.21z" fill-rule="evenodd" fill="#2F3030" data-color="1"></path>
        </g>
    </g>
</svg>